<svg xmlns="http://www.w3.org/2000/svg" width="50" height="50" fill="none" viewBox="-2 -2 50 50"><defs><style>:root{--cat-color:#1A1A1A;--cat-outline:#FFFFFF}</style><filter id="cat-outline" width="140%" height="140%" x="-20%" y="-20%"><feMorphology in="SourceAlpha" operator="dilate" radius="1" result="dilated"/><feFlood flood-color="var(--cat-outline)" result="flood"/><feComposite in="flood" in2="dilated" operator="in" result="outline"/><feMerge><feMergeNode in="outline"/><feMergeNode in="SourceGraphic"/></feMerge></filter><filter id="eye-outline" width="200%" height="200%" x="-50%" y="-50%"><feMorphology in="SourceAlpha" operator="dilate" radius="1" result="dilated"/><feFlood flood-color="#F5F5F5" result="flood"/><feComposite in="flood" in2="dilated" operator="in" result="outline"/><feMerge><feMergeNode in="outline"/><feMergeNode in="SourceGraphic"/></feMerge></filter><clipPath id="head-clip"><path d="M13 9H11V11H10V13H9V18H10V22H12V23H13V24H15V25H25V24H27V23H28V22H29V21H30V18H31V14H30V11H29V10H28V9H26V8H24V7H16V8H13V9Z"/></clipPath><clipPath id="leg-fl-clip"><path d="M12 25V16H13V15H14V14H17V15H18V16H19V27.5H18V31H17V32H16V33H10V29H11V25H12Z"/></clipPath><clipPath id="leg-fr-clip"><path d="M23 36H24V27.5H25V23H26V22H30V23H31V24H32V31H31V33H30V35.5V38.5H29V40H24V39H23V36Z"/></clipPath><clipPath id="body-clip"><path d="M33 15V14H31V13H24.5H18V16H15V17H14V20.5H15V23.5H16V24.5H17V25.5H18V26.5H20.5V27.5H21.5V36.5H39V23H38V20H37V18H36V17H35V16H34V15H33Z"/></clipPath></defs><g id="cat-content" filter="url(#cat-outline)"><g id="body" data-patch-frame="14 13 1.136 1.6"><path fill="var(--cat-color)" d="M33 15V14H31V13H24.5H18V16H15V17H14V20.5H15V23.5H16V24.5H17V25.5H18V26.5H20.5V27.5H21.5V36.5H39V23H38V20H37V18H36V17H35V16H34V15H33Z"/></g><path fill="#999797" d="M24 33V32H25V31H38V32H39V35H38V38H37V40H36V42H21V41H20V39H21V37H22V35H23V33H24Z"/><path fill="#605E5E" d="M20 41H21V42H36V44H35H22V43H21V42H20V41Z"/><path fill="#222" d="M36 44H35V42H36V40H37V38H38V35H39V33H40V35.5H39V38.5H38V41H37V43H36V44Z"/><rect width="13" height="1" x="22" y="41" fill="#D7D6D6"/><rect width="1" height="1" x="20" y="39" fill="#D9D9D9"/><rect width="1" height="1" x="21" y="40" fill="#D9D9D9"/><rect width="1" height="1" x="35" y="40" fill="#D9D9D9"/><rect width="1" height="1" x="36" y="39" fill="#D9D9D9"/><g id="leg-fr" data-patch-frame="23 22 1.125 1.636"><path fill="var(--cat-color)" d="M23 36H24V27.5H25V23H26V22H30V23H31V24H32V31H31V33H30V35.5V38.5H29V40H24V39H23V36Z"/></g><path fill="#999797" d="M4 29V28H5V27H18V28H19V31H18V34H17V36H16V38H1V37H0V35H1V33H2V31H3V29H4Z"/><path fill="#605E5E" d="M0 37H1V38H16V44H15H2V43H1V42H0V37Z"/><path fill="#222" d="M16 44H15V42H16V36H17V34H18V31H19V29H20V35.5H19V38.5H18V41H17V43H16V44Z"/><rect width="13" height="1" x="2" y="37" fill="#D7D6D6"/><rect width="1" height="1" y="35" fill="#D9D9D9"/><rect width="1" height="1" x="1" y="36" fill="#D9D9D9"/><rect width="1" height="1" x="15" y="36" fill="#D9D9D9"/><rect width="1" height="1" x="16" y="35" fill="#D9D9D9"/><g id="leg-fl" data-patch-frame="10 14 1.125 1.727"><path fill="var(--cat-color)" d="M12 25V16H13V15H14V14H17V15H18V16H19V27.5H18V31H17V32H16V33H10V29H11V25H12Z"/></g><g id="head" data-patch-frame="9 7 1 1"><path fill="var(--cat-color)" d="M13 9H11V11H10V13H9V18H10V22H12V23H13V24H15V25H25V24H27V23H28V22H29V21H30V18H31V14H30V11H29V10H28V9H26V8H24V7H16V8H13V9Z"/></g><g id="whiskers" data-heat-overlay="true"><rect width="6" height="1" fill="var(--cat-color)" transform="translate(6 17)"/><rect width="6" height="1" fill="var(--cat-color)" transform="translate(7 19)"/></g><g><rect width="1" height="3" fill="var(--eye-bg-color, #FFFFFF)" transform="translate(20 15)"/><rect width="1" height="3" fill="var(--eye-bg-color, #FFFFFF)" transform="translate(24 15)"/><rect width="3" height="5" fill="var(--eye-bg-color, #FFFFFF)" transform="translate(21 14)"/></g><rect width="3" height="3" fill="var(--eye-color-right, var(--eye-color, var(--cat-color)))" class="pupil-right" transform="translate(21 15)"/><g><rect width="1" height="3" fill="var(--eye-bg-color, #FFFFFF)" transform="translate(11 15)"/><rect width="1" height="3" fill="var(--eye-bg-color, #FFFFFF)" transform="translate(15 15)"/><rect width="3" height="5" fill="var(--eye-bg-color, #FFFFFF)" transform="translate(12 14)"/></g><rect width="3" height="3" fill="var(--eye-color-left, var(--eye-color, var(--cat-color)))" class="pupil-left" transform="translate(12 15)"/></g></svg>